<?xml version="1.0" standalone="no"?>
<!DOCTYPE svg PUBLIC "-//W3C//DTD SVG 20010904//EN"
 "http://www.w3.org/TR/2001/REC-SVG-20010904/DTD/svg10.dtd">
<svg version="1.0" xmlns="http://www.w3.org/2000/svg"
 width="665.000000pt" height="193.000000pt" viewBox="0 0 665.000000 193.000000"
 preserveAspectRatio="xMidYMid meet">

<g transform="translate(0.000000,193.000000) scale(0.100000,-0.100000)"
fill="#000000" stroke="none">
<path d="M1800 1412 c-93 -46 -176 -289 -185 -542 l-5 -125 -35 -32 c-25 -24
-44 -33 -68 -33 l-34 0 26 52 c34 70 37 172 5 215 -45 61 -116 67 -173 14 -30
-28 -31 -28 -31 -7 0 45 -45 60 -88 30 -20 -14 -22 -23 -22 -118 l0 -102 -36
-42 c-43 -51 -80 -57 -90 -15 -4 16 3 77 16 145 25 131 21 148 -31 148 -37 0
-54 -26 -75 -115 -21 -89 -23 -200 -5 -243 15 -36 55 -62 97 -62 21 0 25 -3
19 -17 -43 -104 -69 -247 -55 -308 11 -49 50 -85 92 -85 75 0 135 119 160 315
l11 90 53 17 c47 16 56 16 81 3 53 -28 117 -14 180 39 l32 27 35 -38 c33 -36
38 -38 95 -38 51 1 67 5 104 31 l43 31 32 -28 c82 -74 215 -34 266 80 17 37
38 51 79 51 14 0 17 -9 17 -56 0 -75 21 -113 62 -114 28 0 44 25 72 112 30 98
65 162 89 166 15 3 16 -3 9 -60 -14 -119 -9 -175 15 -200 19 -18 27 -20 50
-12 23 8 32 23 58 100 33 100 77 174 101 174 12 0 14 -7 10 -27 -32 -162 -30
-200 11 -233 36 -28 81 -25 147 9 31 17 56 26 56 20 0 -16 63 -49 95 -49 34 0
93 32 101 55 8 21 21 19 29 -5 9 -30 61 -53 101 -46 41 8 139 95 148 132 8 31
-1 64 -18 64 -6 0 -34 -22 -61 -50 -60 -61 -95 -68 -95 -17 0 17 8 78 17 135
19 114 17 122 -38 122 -15 0 -33 7 -40 16 -9 12 -24 15 -51 11 -96 -13 -188
-109 -209 -220 -12 -61 -42 -97 -81 -97 -30 0 -31 23 -8 150 21 112 22 121 6
145 -38 58 -142 5 -208 -105 -33 -55 -37 -59 -31 -30 5 19 8 60 8 90 0 51 -2
55 -28 64 -23 8 -36 6 -71 -12 -46 -25 -73 -56 -118 -137 -30 -52 -30 -51 -3
68 8 38 13 73 9 78 -8 13 -57 11 -77 -3 -17 -14 -47 -88 -47 -118 0 -20 -19
-30 -55 -30 -18 0 -26 8 -36 38 -34 104 -120 147 -217 107 -77 -33 -122 -102
-130 -203 -4 -52 -9 -66 -30 -82 -33 -27 -98 -27 -112 -1 -17 32 -12 47 34
118 105 163 166 328 167 448 1 140 -50 193 -141 147z m54 -88 c22 -59 -14
-218 -81 -354 -54 -109 -62 -102 -43 38 28 218 96 390 124 316z m1356 -421
c-1 -40 -38 -183 -53 -207 -11 -17 -27 -26 -42 -26 -37 0 -49 38 -34 109 9 44
20 65 54 99 44 44 75 54 75 25z m-1799 -24 c26 -50 -21 -167 -82 -203 l-29
-17 0 92 c0 87 2 95 27 121 32 33 68 36 84 7z m669 -13 c0 -19 11 -49 25 -70
31 -45 31 -63 3 -93 -42 -45 -101 -22 -114 45 -13 66 24 152 67 152 15 0 19
-7 19 -34z m-900 -377 c-11 -127 -33 -229 -50 -229 -34 0 -35 95 -3 204 22 75
54 158 59 153 2 -2 0 -60 -6 -128z"/>
<path d="M5323 1415 c-97 -42 -192 -346 -193 -611 0 -40 -5 -55 -22 -71 -59
-54 -151 -70 -187 -34 -55 55 -18 211 49 211 15 0 19 -9 22 -47 3 -44 5 -48
30 -51 57 -7 81 100 34 155 -21 24 -31 28 -78 28 -103 0 -184 -85 -195 -204
-5 -48 -11 -65 -33 -86 -35 -33 -64 -30 -68 8 -2 15 4 62 12 103 23 109 21
160 -5 175 -56 29 -158 -41 -208 -144 -13 -26 -25 -47 -27 -45 -1 2 6 43 16
92 11 49 17 92 14 97 -8 13 -58 11 -77 -3 -23 -18 -47 -90 -54 -163 -3 -33
-12 -70 -20 -83 -19 -31 -75 -56 -107 -48 -54 13 -54 109 1 355 24 110 24 115
7 128 -25 19 -78 16 -96 -4 -8 -10 -22 -54 -32 -98 -41 -196 -95 -322 -155
-362 -50 -34 -96 -30 -136 10 -41 41 -52 101 -36 198 39 237 201 349 446 310
69 -12 78 -11 96 5 10 9 19 30 19 45 0 25 -6 30 -42 41 -24 6 -95 12 -158 12
-128 -1 -193 -18 -281 -75 -163 -104 -256 -342 -203 -520 36 -121 163 -189
271 -144 45 19 67 38 103 87 l27 37 12 -39 c29 -97 150 -129 245 -65 l36 24
11 -22 c14 -26 28 -37 51 -37 26 0 45 26 63 87 30 101 93 209 112 190 3 -4 0
-49 -7 -101 -15 -107 -7 -145 36 -165 48 -22 123 -4 170 40 l22 20 27 -25 c57
-53 155 -58 244 -14 l48 24 11 -28 c7 -21 17 -28 36 -28 40 0 71 39 101 124
29 87 70 156 91 156 17 0 17 -5 0 -104 -17 -97 -7 -143 37 -164 40 -19 106 -7
153 28 l38 28 33 -28 c84 -75 216 -36 267 79 17 37 38 51 79 51 14 0 17 -9 17
-56 0 -73 21 -114 60 -114 29 0 41 18 74 113 35 99 76 167 101 167 11 0 13
-10 9 -42 -12 -87 61 -128 155 -87 73 31 104 78 76 116 -12 16 -15 15 -54 -11
-62 -43 -73 -33 -65 63 6 75 6 79 -16 91 -56 30 -140 -26 -205 -135 -21 -34
-34 -49 -31 -35 3 14 13 56 21 93 8 38 13 73 9 78 -8 13 -57 11 -77 -3 -17
-14 -47 -88 -47 -118 0 -20 -19 -30 -55 -30 -18 0 -26 8 -36 38 -34 104 -120
147 -217 107 -77 -33 -122 -102 -130 -203 -4 -52 -9 -66 -30 -82 -30 -24 -58
-26 -66 -4 -3 8 4 69 16 135 16 86 19 125 12 136 -44 71 -159 10 -226 -119
l-27 -53 -1 42 c0 37 8 52 69 128 38 48 85 117 104 153 63 120 68 241 12 290
-30 25 -56 27 -102 7z m53 -101 c10 -38 -3 -111 -30 -170 -27 -58 -85 -148
-92 -141 -5 5 23 158 41 219 31 108 67 148 81 92z m384 -448 c0 -19 11 -49 25
-70 31 -45 31 -63 3 -93 -42 -45 -101 -22 -114 45 -13 66 24 152 67 152 15 0
19 -7 19 -34z"/>
<path d="M464 1350 c-56 -8 -143 -35 -187 -57 -62 -31 -86 -84 -52 -113 13
-11 29 -7 93 23 96 45 168 61 247 55 79 -7 138 -37 172 -90 26 -39 28 -48 28
-153 0 -105 -2 -114 -33 -177 -55 -112 -133 -158 -265 -158 l-69 0 7 66 c4 37
20 130 37 208 43 206 42 197 27 207 -21 13 -73 11 -93 -4 -21 -15 -49 -124
-81 -314 -26 -151 -30 -209 -17 -230 23 -36 232 -41 338 -8 124 37 225 139
265 264 26 86 26 221 -1 293 -37 101 -132 170 -257 188 -76 11 -86 11 -159 0z"/>
<path d="M1026 1179 c-51 -40 -24 -119 41 -119 36 0 71 21 81 49 25 72 -59
120 -122 70z"/>
</g>
</svg>
